<?xml version="1.0" encoding="utf-8"?>
<!-- Generator: Adobe Illustrator 22.0.1, SVG Export Plug-In . SVG Version: 6.00 Build 0)  -->
<svg version="1.1" id="Layer_1" xmlns="http://www.w3.org/2000/svg" xmlns:xlink="http://www.w3.org/1999/xlink" x="0px" y="0px"
	 viewBox="0 0 182.5 85" style="enable-background:new 0 0 182.5 85;" xml:space="preserve">
<style type="text/css">
	.st0{fill:none;stroke:#000000;stroke-width:2.232;stroke-linecap:round;stroke-miterlimit:10;}
</style>
<g>
	<path d="M18,55.4V35.5h2.3V44h11v-8.5h2.3v19.9h-2.3v-9.3h-11v9.3H18z"/>
	<path d="M52.9,48.3c0,4.5-3.2,7.7-7.6,7.7c-4.5,0-7.6-3.2-7.6-7.7c0-4.5,3.1-7.7,7.6-7.7C49.8,40.6,52.9,43.8,52.9,48.3z
		 M50.7,48.3c0-3.3-2.3-5.7-5.4-5.7s-5.4,2.4-5.4,5.7c0,3.3,2.3,5.7,5.4,5.7S50.7,51.6,50.7,48.3z"/>
	<path d="M67,55.4v-2c-1,1.6-2.9,2.6-4.9,2.6c-3.6,0-5.9-2.7-5.9-6.3v-8.5h2.1v8.5c0,2.5,1.4,4.3,4,4.3c2.5,0,4.6-1.9,4.6-4.5v-8.3
		h2.1v14.2H67z"/>
	<path d="M79.3,56c-3.7,0-6.3-2.3-6.3-5.3h2.1c0,2,1.7,3.4,4.2,3.4c2.2,0,3.8-1.1,3.8-2.5c0-1.8-2.5-2.2-4.1-2.4
		c-3.2-0.5-5.8-1-5.7-4.2c0-2.5,2.4-4.3,5.4-4.3c3.5,0,6.1,2,6.1,4.8l-2.1,0c0-1.6-1.7-2.8-4-2.8c-1.8,0-3.3,1-3.3,2.4
		c0,1.3,1.2,1.7,3.8,2.1c2.6,0.5,6,1,6,4.2C85.2,54,82.7,56,79.3,56z"/>
	<path d="M95.7,40.6c4.3,0,7.5,3.2,7.5,7.6c0,0.3,0,0.5,0,0.8l-12.8,0c0.3,3,2.5,5,5.3,5c2.2,0,4.3-1.4,4.9-3.2l2.1,0.3
		c-0.9,2.8-3.8,4.8-7,4.8c-4.4,0-7.6-3.3-7.6-7.8C88.2,43.8,91.3,40.6,95.7,40.6z M100.9,47.1c-0.4-2.7-2.5-4.6-5.3-4.6
		c-2.8,0-4.8,1.9-5.2,4.5L100.9,47.1z"/>
	<path d="M123.8,48.8l2.3,0.4c-1,4-4.9,6.9-9.4,6.9c-6,0-10.3-4.5-10.3-10.6s4.3-10.7,10.3-10.7c4.5,0,8.4,3.1,9.4,7.2l-2.3,0.3
		c-0.7-3.1-3.7-5.4-7.1-5.4c-4.7,0-8,3.6-8,8.6c0,5,3.4,8.5,8,8.5C120,54,123,51.8,123.8,48.8z"/>
	<path d="M144.4,48.3c0,4.5-3.2,7.7-7.6,7.7s-7.6-3.2-7.6-7.7c0-4.5,3.1-7.7,7.6-7.7S144.4,43.8,144.4,48.3z M142.2,48.3
		c0-3.3-2.3-5.7-5.4-5.7s-5.4,2.4-5.4,5.7c0,3.3,2.3,5.7,5.4,5.7S142.2,51.6,142.2,48.3z"/>
	<path d="M148.1,55.4V41.2h2.1v1.8c0.9-1.5,2.4-2.3,4.2-2.3c2.3,0,4.3,1.2,5,3c0.9-1.8,2.7-3,4.9-3c3.3,0,5.7,2.6,5.7,6.3v8.5h-2.2
		v-8.5c0-2.5-1.6-4.3-3.8-4.3c-2.4,0-4,1.8-4,4.3v8.5h-2.1v-8.5c0-2.6-1.5-4.3-3.8-4.3c-2.4,0-4,1.7-4,4.3v8.5H148.1z"/>
</g>
<path class="st0" d="M79,40.4V30.3c0-2.2-1.2-4.2-3.4-5.7l-25.9-18c-4.2-2.9-10.8-3-15-0.1L7.5,24.6C5.3,26.1,4,28.2,4,30.4v43
	c0,4.4,4.9,8,11,8H68c6.1,0,11-3.6,11-8V56"/>
<g>
	<path d="M170.9,37.6h-1.7v-0.5h4v0.5h-1.7v4.5h-0.6V37.6z"/>
	<path d="M174.7,42.2h-0.6v-5.1h0.9l1.9,4.3l1.9-4.3h0.9v5.1h-0.6v-4.3l-1.9,4.3h-0.5l-1.9-4.3V42.2z"/>
</g>
</svg>
